<svg class="svg-icon" style="width: 1em; height: 1em;vertical-align: middle;fill: currentColor;overflow: hidden;" viewBox="0 0 1024 1024" version="1.1" xmlns="http://www.w3.org/2000/svg"><path d="M873.386667 85.333333H150.613333a61.866667 61.866667 0 0 0-62.72 61.013334v731.306666A61.866667 61.866667 0 0 0 150.613333 938.666667h722.773334a61.866667 61.866667 0 0 0 62.72-61.013334V146.346667A61.866667 61.866667 0 0 0 873.386667 85.333333zM345.173333 799.573333h-128v-384h128zM281.173333 361.813333a66.56 66.56 0 1 1 0-133.12 66.986667 66.986667 0 1 1 0 133.12z m525.653334 437.76h-128v-206.08c0-51.626667-18.346667-85.333333-64.853334-85.333333A70.4 70.4 0 0 0 548.266667 554.666667a85.333333 85.333333 0 0 0-4.266667 31.146666v213.333334h-128v-384h128V469.333333a128 128 0 0 1 115.626667-64c85.333333 0 147.2 55.04 147.2 173.226667z"  /></svg>